<?xml version="1.0" encoding="UTF-8" standalone="no"?>
<!-- Generator: Adobe Illustrator 16.0.4, SVG Export Plug-In . SVG Version: 6.00 Build 0)  -->

<svg
   xmlns:dc="http://purl.org/dc/elements/1.1/"
   xmlns:cc="http://creativecommons.org/ns#"
   xmlns:rdf="http://www.w3.org/1999/02/22-rdf-syntax-ns#"
   xmlns:svg="http://www.w3.org/2000/svg"
   xmlns="http://www.w3.org/2000/svg"
   xmlns:sodipodi="http://sodipodi.sourceforge.net/DTD/sodipodi-0.dtd"
   xmlns:inkscape="http://www.inkscape.org/namespaces/inkscape"
   version="1.1"
   id="Capa_1"
   x="0px"
   y="0px"
   width="388.853"
   height="22.4"
   viewBox="0 0 388.85299 22.399999"
   enable-background="new 0 0 841.89 595.275"
   xml:space="preserve"
   sodipodi:docname="lmd-boot-banner.svg"
   inkscape:version="0.92.3 (2405546, 2018-03-11)"><metadata
   id="metadata27"><rdf:RDF><cc:Work
       rdf:about=""><dc:format>image/svg+xml</dc:format><dc:type
         rdf:resource="http://purl.org/dc/dcmitype/StillImage" /><dc:title /></cc:Work></rdf:RDF></metadata><defs
   id="defs25" /><sodipodi:namedview
   pagecolor="#ffffff"
   bordercolor="#666666"
   borderopacity="1"
   objecttolerance="10"
   gridtolerance="10"
   guidetolerance="10"
   inkscape:pageopacity="0"
   inkscape:pageshadow="2"
   inkscape:window-width="1920"
   inkscape:window-height="1015"
   id="namedview23"
   showgrid="true"
   inkscape:zoom="0.7929108"
   inkscape:cx="-312.48011"
   inkscape:cy="-42.4183"
   inkscape:window-x="0"
   inkscape:window-y="36"
   inkscape:window-maximized="1"
   inkscape:current-layer="text840"><inkscape:grid
     type="xygrid"
     id="grid29"
     originx="-266.56"
     originy="-239.99998" /></sodipodi:namedview>








<g
   aria-label="BOOT MANAGER"
   style="font-style:normal;font-weight:normal;font-size:40px;line-height:1.25;font-family:sans-serif;letter-spacing:0px;word-spacing:0px;fill:#55a9a6;fill-opacity:1;stroke:none"
   id="text840"><path
     d="M 23.712,22.4 H 1.9520001 Q 5.7220459e-8,22.4 5.7220459e-8,20.448 V 1.9519996 Q 5.7220459e-8,-3.8146973e-7 1.9520001,-3.8146973e-7 H 22.784 q 2.88,0 4.416,1.66399998146973 1.568,1.632 1.568,4.192 0,3.616 -2.752,5.1520004 1.792,0.576 2.752,2.08 0.96,1.472 0.96,3.456 0,2.56 -1.568,4.224 Q 26.624,22.4 23.712,22.4 Z M 22.784,12.928 H 3.9040001 v 5.984 H 22.784 q 1.472,0 2.24,-0.8 0.768,-0.832 0.768,-2.176 0,-1.344 -0.768,-2.176 -0.768,-0.832 -2.24,-0.832 z M 21.824,3.4879996 H 3.9040001 v 5.984 H 21.824 q 1.472,0 2.24,-0.832 0.8,-0.832 0.8,-2.176 0,-1.344 -0.8,-2.144 -0.768,-0.832 -2.24,-0.832 z"
     style="fill:#666666"
     id="path815" /><path
     d="m 52.729,-3.8146973e-7 q 5.472,0 8.384,3.13599998146973 2.944,3.136 2.944,8.0640004 0,4.928 -2.944,8.064 -2.912,3.136 -8.384,3.136 h -8.448 q -5.472,0 -8.416,-3.136 -2.912,-3.136 -2.912,-8.064 0,-4.9280004 2.912,-8.0640004 Q 38.809,-3.8146973e-7 44.281,-3.8146973e-7 Z M 58.137,16.768 q 2.016,-2.176 2.016,-5.568 0,-3.3920004 -2.016,-5.5360004 -2.016,-2.176 -5.792,-2.176 h -7.648 q -3.776,0 -5.824,2.176 -2.016,2.144 -2.016,5.5360004 0,3.392 2.016,5.568 2.048,2.144 5.824,2.144 h 7.648 q 3.776,0 5.792,-2.144 z"
     style="fill:#666666"
     id="path817" /><path
     d="m 87.604,-3.8146973e-7 q 5.472,0 8.384,3.13599998146973 2.944,3.136 2.944,8.0640004 0,4.928 -2.944,8.064 -2.912,3.136 -8.384,3.136 h -8.448 q -5.472,0 -8.416,-3.136 -2.912,-3.136 -2.912,-8.064 0,-4.9280004 2.912,-8.0640004 Q 73.684,-3.8146973e-7 79.156,-3.8146973e-7 Z M 93.012,16.768 q 2.016,-2.176 2.016,-5.568 0,-3.3920004 -2.016,-5.5360004 -2.016,-2.176 -5.792,-2.176 h -7.648 q -3.776,0 -5.824,2.176 -2.016,2.144 -2.016,5.5360004 0,3.392 2.016,5.568 2.048,2.144 5.824,2.144 h 7.648 q 3.776,0 5.792,-2.144 z"
     style="fill:#666666"
     id="path819" /><path
     d="m 129.1135,3.4879996 h -11.264 V 20.448 q 0,1.952 -1.952,1.952 -1.92,0 -1.92,-1.952 V 3.4879996 h -11.264 q -1.76,0 -1.76,-1.76 0,-1.72799998146973 1.76,-1.72799998146973 h 26.4 q 1.76,0 1.76,1.72799998146973 0,1.76 -1.76,1.76 z"
     style="fill:#666666"
     id="path821" /><path
     d="m 148.1145,20.448 q 0,1.952 -1.952,1.952 -1.952,0 -1.952,-1.952 V 9.8879996 q 0,-4.352 2.56,-7.104 2.592,-2.78399998146973 7.392,-2.78399998146973 h 2.816 q 5.856,0 8.288,4.25599998146973 2.432,-4.25599998146973 8.256,-4.25599998146973 h 2.816 q 4.8,0 7.36,2.78399998146973 2.592,2.752 2.592,7.104 V 20.448 q 0,1.952 -1.952,1.952 -1.92,0 -1.92,-1.952 V 10.016 q 0,-2.8800004 -1.728,-4.7040004 -1.696,-1.824 -4.896,-1.824 h -1.984 q -3.2,0 -4.896,1.824 -1.696,1.824 -1.696,4.7040004 v 10.432 q 0,1.952 -1.952,1.952 -1.952,0 -1.952,-1.952 V 10.016 q 0,-2.8800004 -1.728,-4.7040004 -1.696,-1.824 -4.864,-1.824 h -2.016 q -3.168,0 -4.896,1.824 -1.696,1.824 -1.696,4.672 z"
     style="font-style:normal;font-variant:normal;font-weight:normal;font-stretch:normal;font-size:32px;font-family:SpaceColony-Medium;-inkscape-font-specification:SpaceColony-Medium;fill:#55a9a6;fill-opacity:1"
     id="path823" /><path
     d="m 216.7585,20.448 v -4.896 h -22.144 v 4.896 q 0,1.952 -1.952,1.952 -1.952,0 -1.952,-1.952 V 11.2 q 0,-4.9280004 2.944,-8.0640004 2.944,-3.13599998146973 8.384,-3.13599998146973 h 7.296 q 5.44,0 8.384,3.13599998146973 2.944,3.136 2.944,8.0640004 v 9.248 q 0,1.952 -1.952,1.952 -1.952,0 -1.952,-1.952 z M 194.6145,11.2 v 1.024 h 22.144 V 11.2 q 0,-3.3920004 -2.048,-5.5360004 -2.016,-2.176 -5.792,-2.176 h -6.464 q -3.776,0 -5.824,2.176 -2.016,2.144 -2.016,5.5360004 z"
     style="font-style:normal;font-variant:normal;font-weight:normal;font-stretch:normal;font-size:32px;font-family:SpaceColony-Medium;-inkscape-font-specification:SpaceColony-Medium;fill:#55a9a6;fill-opacity:1"
     id="path825" /><path
     d="M 251.1335,20.448 V 11.2 q 0,-3.3920004 -2.048,-5.5360004 -2.016,-2.176 -5.792,-2.176 h -6.464 q -3.776,0 -5.824,2.176 -2.016,2.144 -2.016,5.5360004 v 9.248 q 0,1.952 -1.952,1.952 -1.952,0 -1.952,-1.952 V 11.2 q 0,-4.9280004 2.944,-8.0640004 2.944,-3.13599998146973 8.384,-3.13599998146973 h 7.296 q 5.44,0 8.384,3.13599998146973 2.944,3.136 2.944,8.0640004 v 9.248 q 0,1.952 -1.952,1.952 -1.952,0 -1.952,-1.952 z"
     style="font-style:normal;font-variant:normal;font-weight:normal;font-stretch:normal;font-size:32px;font-family:SpaceColony-Medium;-inkscape-font-specification:SpaceColony-Medium;fill:#55a9a6;fill-opacity:1"
     id="path827" /><path
     d="m 285.5085,20.448 v -4.896 h -22.144 v 4.896 q 0,1.952 -1.952,1.952 -1.952,0 -1.952,-1.952 V 11.2 q 0,-4.9280004 2.944,-8.0640004 2.944,-3.13599998146973 8.384,-3.13599998146973 h 7.296 q 5.44,0 8.384,3.13599998146973 2.944,3.136 2.944,8.0640004 v 9.248 q 0,1.952 -1.952,1.952 -1.952,0 -1.952,-1.952 z M 263.3645,11.2 v 1.024 h 22.144 V 11.2 q 0,-3.3920004 -2.048,-5.5360004 -2.016,-2.176 -5.792,-2.176 h -6.464 q -3.776,0 -5.824,2.176 -2.016,2.144 -2.016,5.5360004 z"
     style="font-style:normal;font-variant:normal;font-weight:normal;font-stretch:normal;font-size:32px;font-family:SpaceColony-Medium;-inkscape-font-specification:SpaceColony-Medium;fill:#55a9a6;fill-opacity:1"
     id="path829" /><path
     d="m 305.2595,3.4879996 q -3.776,0 -5.824,2.176 -2.016,2.144 -2.016,5.5360004 0,3.392 2.016,5.568 2.048,2.144 5.824,2.144 h 11.072 q 2.048,0 2.048,-2.048 v -5.056 q 0,-1.9520004 1.952,-1.9520004 1.952,0 1.952,1.9520004 v 5.92 q 0,2.24 -1.216,3.456 -1.216,1.216 -3.52,1.216 h -12.704 q -5.472,0 -8.416,-3.136 -2.912,-3.136 -2.912,-8.064 0,-4.9280004 2.912,-8.0640004 2.944,-3.13599998146973 8.416,-3.13599998146973 h 15.68 q 1.76,0 1.76,1.72799998146973 0,1.76 -1.76,1.76 z"
     style="font-style:normal;font-variant:normal;font-weight:normal;font-stretch:normal;font-size:32px;font-family:SpaceColony-Medium;-inkscape-font-specification:SpaceColony-Medium;fill:#55a9a6;fill-opacity:1"
     id="path831" /><path
     d="m 337.947,3.4879996 q -3.296,0 -5.248,1.632 -1.952,1.632 -2.432,4.352 h 20.384 q 1.76,0 1.76,1.7280004 0,0.832 -0.48,1.28 -0.448,0.448 -1.28,0.448 h -20.384 q 0.48,2.72 2.432,4.352 1.952,1.632 5.248,1.632 h 15.232 q 1.76,0 1.76,1.76 0,1.728 -1.76,1.728 h -15.648 q -5.472,0 -8.416,-3.136 -2.912,-3.136 -2.912,-8.064 0,-4.9280004 2.912,-8.0640004 Q 332.059,-3.8146973e-7 337.531,-3.8146973e-7 h 15.648 q 1.76,0 1.76,1.72799998146973 0,1.76 -1.76,1.76 z"
     style="font-style:normal;font-variant:normal;font-weight:normal;font-stretch:normal;font-size:32px;font-family:SpaceColony-Medium;-inkscape-font-specification:SpaceColony-Medium;fill:#55a9a6;fill-opacity:1"
     id="path833" /><path
     d="m 384.949,20.448 v -1.696 q 0,-2.016 -1.152,-3.232 -1.152,-1.216 -3.424,-1.216 h -17.344 v 6.144 q 0,1.952 -1.952,1.952 -1.952,0 -1.952,-1.952 V 1.9519996 q 0,-1.95199998146973 1.952,-1.95199998146973 h 21.152 q 3.2,0 4.896,1.82399998146973 1.728,1.824 1.728,4.704 0,2.08 -0.928,3.6800004 -0.928,1.568 -2.688,2.336 1.728,0.672 2.656,2.208 0.96,1.536 0.96,3.488 v 2.208 q 0,1.952 -1.952,1.952 -1.952,0 -1.952,-1.952 z M 381.205,3.4879996 H 363.029 V 10.816 h 18.176 q 1.792,0 2.752,-1.0240004 0.96,-1.024 0.96,-2.624 0,-1.632 -0.96,-2.656 -0.96,-1.024 -2.752,-1.024 z"
     style="font-style:normal;font-variant:normal;font-weight:normal;font-stretch:normal;font-size:32px;font-family:SpaceColony-Medium;-inkscape-font-specification:SpaceColony-Medium;fill:#55a9a6;fill-opacity:1"
     id="path835" /></g>






</svg>